<svg xmlns="http://www.w3.org/2000/svg" xmlns:xlink="http://www.w3.org/1999/xlink" version="1.1" x="0px" y="0px" viewBox="0 0 24 24" style="enable-background:new 0 0 24 24;" xml:space="preserve"><g><path d="M12,6.55c-2.995,0-5.432,2.436-5.432,5.431c0,2.995,2.437,5.432,5.432,5.432s5.432-2.437,5.432-5.432   C17.432,8.986,14.995,6.55,12,6.55z M12,16.328c-2.397,0-4.347-1.95-4.347-4.348c0-2.397,1.95-4.347,4.347-4.347   s4.347,1.95,4.347,4.347C16.347,14.378,14.397,16.328,12,16.328z"/><path d="M12.542,5.178v-1.82c0-0.299-0.243-0.542-0.542-0.542c-0.299,0-0.542,0.243-0.542,0.542v1.82   c0,0.299,0.243,0.542,0.542,0.542C12.299,5.721,12.542,5.478,12.542,5.178z"/><path d="M11.458,18.822v1.82c0,0.299,0.243,0.542,0.542,0.542c0.299,0,0.542-0.243,0.542-0.542v-1.82   c0-0.299-0.243-0.542-0.542-0.542C11.701,18.279,11.458,18.522,11.458,18.822z"/><path d="M5.179,12.543c0.299,0,0.542-0.243,0.542-0.542c0-0.299-0.243-0.542-0.542-0.542H3.358c-0.299,0-0.542,0.243-0.542,0.542   c0,0.299,0.243,0.542,0.542,0.542H5.179z"/><path d="M20.642,11.458h-1.82c-0.299,0-0.542,0.243-0.542,0.542c0,0.299,0.243,0.542,0.542,0.542h1.82   c0.299,0,0.542-0.243,0.542-0.542C21.184,11.701,20.941,11.458,20.642,11.458z"/><path d="M18.494,5.506c-0.212-0.212-0.555-0.212-0.767,0l-1.253,1.253c-0.212,0.212-0.212,0.555,0,0.767   c0.106,0.106,0.245,0.159,0.383,0.159c0.139,0,0.278-0.053,0.384-0.159l1.253-1.253C18.706,6.061,18.706,5.717,18.494,5.506z"/><path d="M6.759,16.474l-1.254,1.254c-0.212,0.212-0.212,0.555,0,0.767c0.106,0.106,0.245,0.159,0.383,0.159   s0.278-0.053,0.383-0.159l1.254-1.254c0.212-0.212,0.212-0.555,0-0.767C7.314,16.262,6.971,16.262,6.759,16.474z"/><path d="M7.526,7.526c0.212-0.212,0.212-0.555,0-0.767L6.273,5.506c-0.212-0.212-0.555-0.212-0.767,0   c-0.212,0.212-0.212,0.555,0,0.767l1.254,1.253c0.106,0.106,0.245,0.159,0.383,0.159S7.42,7.632,7.526,7.526z"/><path d="M16.475,16.474c-0.212,0.212-0.212,0.555,0,0.767l1.253,1.254c0.106,0.106,0.245,0.159,0.384,0.159   c0.139,0,0.277-0.053,0.383-0.159c0.212-0.212,0.212-0.555,0-0.767l-1.253-1.254C17.03,16.262,16.686,16.262,16.475,16.474z"/></g></svg>
