<?xml version="1.0" encoding="utf-8"?>
<!-- Generator: Adobe Illustrator 19.2.1, SVG Export Plug-In . SVG Version: 6.00 Build 0)  -->
<svg version="1.1" id="Capa_1" xmlns="http://www.w3.org/2000/svg" xmlns:xlink="http://www.w3.org/1999/xlink" x="0px" y="0px"
	 viewBox="0 0 184.1 100" style="enable-background:new 0 0 184.1 100;" xml:space="preserve">
<style type="text/css">
	.st0{fill:#1E5572;}
	.st1{fill:#FFFFFF;}
	.st2{fill:#1C2936;}
	.st3{fill:#E6E5E4;}
	.st4{fill:none;stroke:#656565;stroke-width:0.2608;stroke-miterlimit:10;}
	.st5{fill:#F7F7F8;}
	.st6{fill:#D7D3CE;}
	.st7{fill:#253746;}
	.st8{fill:#C5C2BF;}
</style>
<g>
	<g>
		
			<image style="overflow:visible;opacity:0.2;enable-background:new    ;" width="182" height="106" xlink:href="F8CD6AC0DFE6F485.png"  transform="matrix(0.9945 0 0 0.9906 3.518 -2.5)">
		</image>
		<g>
			<path class="st0" d="M178.4,7.6l-13.3-7.1H7.4C6.8,0.5,6.3,1,6.3,1.6v94.2c0,0.6,0.5,1.1,1.1,1.1h157.4l13.6-7.2V7.6z M27.1,92.7
				c-2.2,0-4-1.8-4-4s1.8-4,4-4s4,1.8,4,4C31.2,90.9,29.4,92.7,27.1,92.7z M27.1,12.7c-2.2,0-4-1.8-4-4c0-2.2,1.8-4,4-4s4,1.8,4,4
				C31.2,10.9,29.4,12.7,27.1,12.7z M39.2,92.7c-2.2,0-4-1.8-4-4s1.8-4,4-4s4,1.8,4,4S41.4,92.7,39.2,92.7z M39.2,12.7
				c-2.2,0-4-1.8-4-4c0-2.2,1.8-4,4-4s4,1.8,4,4C43.2,10.9,41.4,12.7,39.2,12.7z M51.2,92.7c-2.2,0-4-1.8-4-4s1.8-4,4-4s4,1.8,4,4
				S53.4,92.7,51.2,92.7z M51.2,12.7c-2.2,0-4-1.8-4-4c0-2.2,1.8-4,4-4s4,1.8,4,4C55.2,10.9,53.4,12.7,51.2,12.7z M63.2,92.7
				c-2.2,0-4-1.8-4-4s1.8-4,4-4c2.2,0,4,1.8,4,4S65.4,92.7,63.2,92.7z M63.2,12.7c-2.2,0-4-1.8-4-4c0-2.2,1.8-4,4-4c2.2,0,4,1.8,4,4
				C67.2,10.9,65.4,12.7,63.2,12.7z M75.2,92.7c-2.2,0-4-1.8-4-4s1.8-4,4-4c2.2,0,4,1.8,4,4C79.2,90.9,77.4,92.7,75.2,92.7z
				 M75.2,12.7c-2.2,0-4-1.8-4-4c0-2.2,1.8-4,4-4c2.2,0,4,1.8,4,4C79.2,10.9,77.4,12.7,75.2,12.7z M87.2,92.7c-2.2,0-4-1.8-4-4
				s1.8-4,4-4s4,1.8,4,4S89.4,92.7,87.2,92.7z M87.2,12.7c-2.2,0-4-1.8-4-4c0-2.2,1.8-4,4-4s4,1.8,4,4
				C91.2,10.9,89.4,12.7,87.2,12.7z M99.2,92.7c-2.2,0-4-1.8-4-4s1.8-4,4-4s4,1.8,4,4C103.3,90.9,101.5,92.7,99.2,92.7z M99.2,12.7
				c-2.2,0-4-1.8-4-4c0-2.2,1.8-4,4-4s4,1.8,4,4C103.3,10.9,101.5,12.7,99.2,12.7z M111.2,92.7c-2.2,0-4-1.8-4-4s1.8-4,4-4
				s4,1.8,4,4C115.3,90.9,113.5,92.7,111.2,92.7z M111.2,12.7c-2.2,0-4-1.8-4-4c0-2.2,1.8-4,4-4s4,1.8,4,4
				C115.3,10.9,113.5,12.7,111.2,12.7z M123.3,92.7c-2.2,0-4-1.8-4-4s1.8-4,4-4s4,1.8,4,4S125.5,92.7,123.3,92.7z M123.3,12.7
				c-2.2,0-4-1.8-4-4c0-2.2,1.8-4,4-4s4,1.8,4,4C127.3,10.9,125.5,12.7,123.3,12.7z M135.3,92.7c-2.2,0-4-1.8-4-4s1.8-4,4-4
				s4,1.8,4,4S137.5,92.7,135.3,92.7z M135.3,12.7c-2.2,0-4-1.8-4-4c0-2.2,1.8-4,4-4s4,1.8,4,4C139.3,10.9,137.5,12.7,135.3,12.7z
				 M147.3,92.7c-2.2,0-4-1.8-4-4s1.8-4,4-4s4,1.8,4,4S149.5,92.7,147.3,92.7z M147.3,12.7c-2.2,0-4-1.8-4-4c0-2.2,1.8-4,4-4
				s4,1.8,4,4C151.3,10.9,149.5,12.7,147.3,12.7z M159.3,92.7c-2.2,0-4-1.8-4-4s1.8-4,4-4s4,1.8,4,4S161.5,92.7,159.3,92.7z
				 M159.3,12.7c-2.2,0-4-1.8-4-4c0-2.2,1.8-4,4-4s4,1.8,4,4C163.3,10.9,161.5,12.7,159.3,12.7z"/>
		</g>
	</g>
	<g>
		<g>
			
				<image style="overflow:visible;opacity:0.4;enable-background:new    ;" width="43" height="46" xlink:href="F8CD6AC0DFE6F487.png"  transform="matrix(0.9767 0 0 0.9783 41.4054 11.3874)">
			</image>
			<g>
				<rect x="50.8" y="20.8" class="st1" width="14.2" height="16.9"/>
			</g>
		</g>
		<circle class="st2" cx="57.9" cy="29.2" r="4.6"/>
		<g>
			
				<image style="overflow:visible;opacity:0.4;enable-background:new    ;" width="43" height="46" xlink:href="F8CD6AC0DFE6F482.png"  transform="matrix(0.9767 0 0 0.9783 41.4054 50.3874)">
			</image>
			<g>
				<rect x="50.8" y="59.7" class="st1" width="14.2" height="16.9"/>
			</g>
		</g>
		<circle class="st2" cx="57.9" cy="68.1" r="4.6"/>
	</g>
	<g>
		<g>
			<rect x="138.7" y="73.2" class="st3" width="1.7" height="5.5"/>
			<rect x="134.8" y="73.2" class="st3" width="1.7" height="5.5"/>
			<rect x="130.9" y="73.2" class="st3" width="1.7" height="5.5"/>
			<rect x="127" y="73.2" class="st3" width="1.7" height="5.5"/>
			<rect x="123.1" y="73.2" class="st3" width="1.7" height="5.5"/>
			<rect x="119.2" y="73.2" class="st3" width="1.7" height="5.5"/>
			<rect x="115.3" y="73.2" class="st3" width="1.7" height="5.5"/>
			<rect x="111.4" y="73.2" class="st3" width="1.7" height="5.5"/>
			<rect x="107.5" y="73.2" class="st3" width="1.7" height="5.5"/>
			<rect x="103.7" y="73.2" class="st3" width="1.7" height="5.5"/>
			<rect x="99.8" y="73.2" class="st3" width="1.7" height="5.5"/>
			<rect x="95.9" y="73.2" class="st3" width="1.7" height="5.5"/>
		</g>
		<g>
			<rect x="138.7" y="18.7" class="st3" width="1.7" height="5.5"/>
			<rect x="134.8" y="18.7" class="st3" width="1.7" height="5.5"/>
			<rect x="130.9" y="18.7" class="st3" width="1.7" height="5.5"/>
			<rect x="127" y="18.7" class="st3" width="1.7" height="5.5"/>
			<rect x="123.1" y="18.7" class="st3" width="1.7" height="5.5"/>
			<rect x="119.2" y="18.7" class="st3" width="1.7" height="5.5"/>
			<rect x="115.3" y="18.7" class="st3" width="1.7" height="5.5"/>
			<rect x="111.4" y="18.7" class="st3" width="1.7" height="5.5"/>
			<rect x="107.5" y="18.7" class="st3" width="1.7" height="5.5"/>
			<rect x="103.7" y="18.7" class="st3" width="1.7" height="5.5"/>
			<rect x="99.8" y="18.7" class="st3" width="1.7" height="5.5"/>
			<rect x="95.9" y="18.7" class="st3" width="1.7" height="5.5"/>
		</g>
		<g>
			<rect x="88.1" y="69.2" class="st3" width="5.5" height="1.7"/>
			<rect x="88.1" y="65.3" class="st3" width="5.5" height="1.7"/>
			<rect x="88.1" y="61.4" class="st3" width="5.5" height="1.7"/>
			<rect x="88.1" y="57.5" class="st3" width="5.5" height="1.7"/>
			<rect x="88.1" y="53.7" class="st3" width="5.5" height="1.7"/>
			<rect x="88.1" y="49.8" class="st3" width="5.5" height="1.7"/>
			<rect x="88.1" y="45.9" class="st3" width="5.5" height="1.7"/>
			<rect x="88.1" y="42" class="st3" width="5.5" height="1.7"/>
			<rect x="88.1" y="38.1" class="st3" width="5.5" height="1.7"/>
			<rect x="88.1" y="34.2" class="st3" width="5.5" height="1.7"/>
			<rect x="88.1" y="30.3" class="st3" width="5.5" height="1.7"/>
			<rect x="88.1" y="26.4" class="st3" width="5.5" height="1.7"/>
		</g>
		<g>
			<rect x="142.6" y="69.2" class="st3" width="5.5" height="1.7"/>
			<rect x="142.6" y="65.3" class="st3" width="5.5" height="1.7"/>
			<rect x="142.6" y="61.4" class="st3" width="5.5" height="1.7"/>
			<rect x="142.6" y="57.5" class="st3" width="5.5" height="1.7"/>
			<rect x="142.6" y="53.7" class="st3" width="5.5" height="1.7"/>
			<rect x="142.6" y="49.8" class="st3" width="5.5" height="1.7"/>
			<rect x="142.6" y="45.9" class="st3" width="5.5" height="1.7"/>
			<rect x="142.6" y="42" class="st3" width="5.5" height="1.7"/>
			<rect x="142.6" y="38.1" class="st3" width="5.5" height="1.7"/>
			<rect x="142.6" y="34.2" class="st3" width="5.5" height="1.7"/>
			<rect x="142.6" y="30.3" class="st3" width="5.5" height="1.7"/>
			<rect x="142.6" y="26.4" class="st3" width="5.5" height="1.7"/>
		</g>
		<g>
			
				<image style="overflow:visible;opacity:0.3;enable-background:new    ;" width="58" height="57" xlink:href="F8CD6AC0DFE6F483.png"  transform="matrix(0.9828 0 0 0.9825 90.8801 21.8621)">
			</image>
			<g>
				<rect x="93.8" y="24.2" class="st2" width="48.8" height="48.8"/>
				<rect x="93.8" y="24.2" class="st4" width="48.8" height="48.8"/>
			</g>
		</g>
	</g>
	<g>
		<polygon class="st5" points="122.5,48.7 130.5,61.2 118.1,53.1 105.6,61.2 113.7,48.7 105.6,36.3 118.1,44.3 130.5,36.3 		"/>
		<g>
			<polygon class="st5" points="119.9,40.1 118.1,41.3 116.2,40.1 118.1,29.8 			"/>
		</g>
		<g>
			<polygon class="st5" points="116.2,57.2 118.1,56 119.9,57.2 118.1,67.6 			"/>
		</g>
		<g>
			<polygon class="st5" points="126.6,50.6 125.4,48.7 126.6,46.8 136.9,48.7 			"/>
		</g>
		<g>
			<polygon class="st5" points="109.5,46.8 110.7,48.7 109.5,50.6 99.2,48.7 			"/>
		</g>
	</g>
	<g>
		<g>
			<rect x="22.2" y="34.2" class="st3" width="3.6" height="1.1"/>
			<rect x="22.2" y="36.8" class="st3" width="3.6" height="1.1"/>
			<rect x="22.2" y="39.3" class="st3" width="3.6" height="1.1"/>
			<rect x="22.2" y="41.8" class="st3" width="3.6" height="1.1"/>
			<rect x="22.2" y="44.3" class="st3" width="3.6" height="1.1"/>
			<rect x="22.2" y="46.9" class="st3" width="3.6" height="1.1"/>
			<rect x="22.2" y="49.4" class="st3" width="3.6" height="1.1"/>
			<rect x="22.2" y="51.9" class="st3" width="3.6" height="1.1"/>
			<rect x="22.2" y="54.4" class="st3" width="3.6" height="1.1"/>
			<rect x="22.2" y="57" class="st3" width="3.6" height="1.1"/>
			<rect x="22.2" y="59.5" class="st3" width="3.6" height="1.1"/>
			<rect x="22.2" y="62" class="st3" width="3.6" height="1.1"/>
		</g>
		<g>
			
				<image style="overflow:visible;opacity:0.4;enable-background:new    ;" width="28" height="47" xlink:href="F8CD6AC0DFE6F48D.png"  transform="matrix(0.9643 0 0 0.9787 -0.1636 26.8184)">
			</image>
			<g>
				<rect x="1.5" y="28.2" class="st6" width="22.1" height="41"/>
			</g>
		</g>
		<g>
			<g>
				<rect x="4.1" y="55.5" class="st7" width="9.9" height="5.8"/>
				<rect x="5.6" y="56.8" class="st6" width="8.5" height="3.2"/>
			</g>
			<g>
				<rect x="4.1" y="36" class="st7" width="9.9" height="5.8"/>
				<rect x="5.6" y="37.4" class="st6" width="8.5" height="3.2"/>
			</g>
		</g>
		<g>
			<rect x="18.4" y="54.8" class="st8" width="5.2" height="3.2"/>
			<rect x="18.4" y="39.4" class="st8" width="5.2" height="3.2"/>
		</g>
	</g>
	<g>
		<g>
			
				<image style="overflow:visible;opacity:0.5;enable-background:new    ;" width="42" height="61" xlink:href="F8CD6AC0DFE6F48F.png"  transform="matrix(0.9762 0 0 0.9836 149.4635 23.4455)">
			</image>
			<g>
				<rect x="158.4" y="32.9" class="st3" width="13.2" height="31.5"/>
			</g>
		</g>
		<rect x="158.4" y="60.1" class="st7" width="13.4" height="4.3"/>
		<rect x="158.4" y="32.9" class="st7" width="13.4" height="4.3"/>
		<rect x="163.4" y="36.8" class="st7" width="3.2" height="7.2"/>
	</g>
</g>
</svg>
